<svg width="15" height="15" viewBox="0 0 15 15" fill="none" xmlns="http://www.w3.org/2000/svg">
<rect width="15" height="15" fill="#262626"/>
<rect width="1440" height="1024" transform="translate(-400 -359)" fill="#EBEBEB"/>
<path d="M7.57237 0.0027838C8.79733 0.0027838 10.0229 -0.00483048 11.2478 0.00512666C12.3216 0.0139124 13.2432 0.401655 13.9795 1.18885C14.5402 1.78804 14.8717 2.50261 14.9707 3.32027C14.9889 3.47021 14.9977 3.62191 14.9977 3.77244C14.9995 6.27637 15.0024 8.77971 14.9965 11.2836C14.9948 12.031 14.7798 12.7233 14.355 13.3395C13.7323 14.2421 12.8753 14.7856 11.788 14.9531C11.6128 14.9801 11.4335 14.9953 11.2566 14.9959C8.78151 14.9988 6.30699 14.9935 3.83188 15C3.09374 15.0017 2.41301 14.8167 1.78911 14.4318C0.910374 13.8901 0.359114 13.1046 0.105452 12.1066C0.0339811 11.8237 0.00117493 11.5367 0.00117493 11.245C0.00176075 8.77034 0.00410405 6.29628 3.27753e-06 3.82164C-0.000582547 3.33198 0.0773321 2.85931 0.259523 2.40714C0.728183 1.23981 1.57529 0.486583 2.78208 0.135741C3.10839 0.0408552 3.44114 0.0027838 3.77916 0.0027838C5.04337 0.0027838 6.30816 0.0027838 7.57237 0.0027838ZM1.25132 7.49758H1.25308C1.25308 8.77619 1.25015 10.0548 1.25425 11.3334C1.25601 11.874 1.43703 12.3602 1.77564 12.7772C2.30112 13.425 2.98068 13.7524 3.82661 13.7495C6.2695 13.7419 8.71297 13.7466 11.1559 13.7466C11.2045 13.7466 11.2537 13.7448 11.3023 13.7448C11.7013 13.7466 12.0768 13.647 12.4218 13.4531C13.2953 12.9635 13.7446 12.2102 13.7475 11.211C13.7552 8.74398 13.7505 6.27695 13.7481 3.80992C13.7481 3.64944 13.7481 3.48485 13.7177 3.32847C13.5179 2.3228 12.9163 1.66914 11.9491 1.34583C11.7007 1.26265 11.4417 1.25035 11.1828 1.25035C8.71766 1.24977 6.25251 1.24918 3.78736 1.25094C3.6368 1.25094 3.48214 1.25211 3.33569 1.28081C2.40657 1.46355 1.76861 2.00534 1.4054 2.87454C1.28003 3.17384 1.25015 3.49071 1.25074 3.81344C1.2525 5.04109 1.25132 6.26817 1.25132 7.49582V7.49758Z" fill="#25AE54"/>
<path d="M6.87407 6.87308C6.87407 6.82622 6.87407 6.79049 6.87407 6.75418C6.87407 5.98279 6.87407 5.21199 6.87348 4.44061C6.87348 4.23678 6.92386 4.05404 7.08145 3.91405C7.27594 3.74068 7.49973 3.71022 7.7364 3.8016C7.95667 3.88652 8.08263 4.05697 8.11485 4.29125C8.12539 4.36798 8.12598 4.44705 8.12598 4.52495C8.12598 5.28872 8.12422 6.05249 8.12129 6.81626C8.12129 6.86722 8.14004 6.87776 8.18573 6.87776C8.98128 6.87542 9.77741 6.87484 10.573 6.87308C10.7417 6.87308 10.8969 6.91174 11.0276 7.02361C11.2238 7.19171 11.3 7.45879 11.2191 7.69249C11.1301 7.95021 10.9139 8.11069 10.6345 8.12592C10.6028 8.12768 10.5712 8.12709 10.5396 8.12709C9.75633 8.12709 8.97249 8.12651 8.18925 8.12592C8.1705 8.12592 8.15175 8.12885 8.12539 8.13119C8.12539 8.17571 8.12539 8.21671 8.12539 8.25771C8.12539 9.02909 8.12656 9.79989 8.12656 10.5713C8.12656 10.8887 7.97015 11.1242 7.70418 11.2144C7.28942 11.355 6.88286 11.0592 6.87524 10.6064C6.86997 10.3089 6.87407 10.0107 6.87407 9.7132C6.87407 9.20539 6.87348 8.69816 6.8729 8.19035C6.8729 8.17336 6.8729 8.15638 6.8729 8.12651C6.84126 8.12651 6.81314 8.12651 6.78502 8.12651C5.99885 8.12651 5.21326 8.12651 4.42708 8.12651C4.25543 8.12651 4.09785 8.08843 3.96662 7.97188C3.7651 7.79323 3.69832 7.52849 3.79088 7.28073C3.88402 7.03181 4.10956 6.87601 4.39369 6.87366C4.82076 6.87074 5.24782 6.87308 5.67489 6.87308C6.03107 6.87308 6.38784 6.87308 6.74402 6.87308C6.78268 6.87308 6.82252 6.87308 6.87407 6.87308Z" fill="#25AE54"/>
</svg>
