<svg width="14" height="17" viewBox="0 0 14 17" fill="none" xmlns="http://www.w3.org/2000/svg">
<path d="M0.779484 9.77268C0.779484 8.38124 0.779484 6.99052 0.780942 5.59908C0.780942 5.47305 0.7824 5.34339 0.810099 5.2217C0.893197 4.85809 1.21757 4.62341 1.59369 4.63862C1.96034 4.6531 2.25775 4.91893 2.31533 5.28617C2.32772 5.36295 2.33355 5.4419 2.33355 5.52013C2.33428 8.35661 2.33574 11.1938 2.33355 14.0303C2.33355 14.7039 2.89556 15.266 3.40726 15.3964C3.54649 15.4319 3.69446 15.45 3.83806 15.45C5.95486 15.4536 8.07166 15.4529 10.1885 15.4529C10.9188 15.4529 11.572 14.8821 11.6594 14.1636C11.6667 14.1042 11.6645 14.0433 11.6645 13.9825C11.6645 11.1395 11.6645 8.29722 11.6645 5.45422C11.6645 5.07974 11.8613 4.79 12.1901 4.67773C12.6901 4.50679 13.1894 4.84867 13.2091 5.39192C13.2252 5.85042 13.2186 6.30893 13.2186 6.76815C13.2193 9.11281 13.2171 11.4582 13.2208 13.8029C13.2208 14.3041 13.1435 14.7879 12.9329 15.2457C12.6151 15.9367 12.0982 16.4286 11.3999 16.7335C11.0056 16.9052 10.5923 16.995 10.1629 16.995C8.04031 16.9972 5.91695 17.0066 3.79432 16.9921C2.71405 16.9848 1.8787 16.5003 1.27443 15.6101C0.929643 15.1023 0.783129 14.5395 0.781671 13.9361C0.778027 12.5476 0.780942 11.1598 0.780942 9.77123L0.779484 9.77268Z" fill="white"/>
<path d="M6.98993 3.86431C4.94311 3.86431 2.89556 3.86431 0.848732 3.86431C0.53165 3.86431 0.272152 3.75638 0.105957 3.47607C-0.184156 2.98569 0.154066 2.35697 0.724815 2.32221C0.788231 2.31858 0.852377 2.31858 0.915794 2.31858C1.86631 2.31858 2.81683 2.31858 3.76735 2.31858C3.88617 2.31858 3.88544 2.31786 3.88544 2.20124C3.88544 1.73984 3.88398 1.27772 3.88544 0.816321C3.88908 0.333192 4.2171 0.00289733 4.70548 0.00217299C6.23039 -0.000724331 7.75458 -0.000724331 9.27949 0.00217299C9.75985 0.00289733 10.0616 0.286111 10.1039 0.763445C10.109 0.820667 10.1097 0.87789 10.1097 0.935112C10.1097 1.37261 10.1112 1.8101 10.1083 2.2476C10.1083 2.30772 10.1301 2.32076 10.1819 2.31931C10.2701 2.31714 10.3583 2.31931 10.4458 2.31931C11.3358 2.31931 12.2258 2.31931 13.1151 2.31931C13.2711 2.31931 13.4242 2.33162 13.567 2.40261C13.8601 2.5482 14.043 2.88936 13.9913 3.1972C13.9322 3.5514 13.6764 3.80419 13.3294 3.84765C13.2456 3.85851 13.1603 3.86431 13.0757 3.86431C11.0471 3.86503 9.01781 3.86431 6.9892 3.86431H6.98993ZM8.55421 1.55079C8.53015 1.54862 8.51558 1.54645 8.50027 1.54645C7.50528 1.54645 6.50957 1.54645 5.51459 1.545C5.44753 1.545 5.43295 1.56963 5.43513 1.63047C5.44169 1.82604 5.44826 2.02233 5.44461 2.2179C5.44315 2.29685 5.45992 2.32076 5.54229 2.32003C6.46146 2.31714 7.38137 2.31858 8.30054 2.31858C8.36396 2.31858 8.4281 2.32293 8.49152 2.31641C8.51412 2.31424 8.55129 2.28744 8.55202 2.2715C8.55567 2.03392 8.55494 1.79634 8.55494 1.55079H8.55421Z" fill="white"/>
<path d="M6.22237 9.67634C6.22237 10.5513 6.22237 11.4263 6.22237 12.302C6.22237 12.7432 5.98256 13.043 5.56999 13.1249C5.1822 13.2024 4.75432 12.9127 4.68726 12.5237C4.67414 12.4498 4.6683 12.3738 4.66758 12.2991C4.66685 10.5245 4.66612 8.74992 4.66758 6.97603C4.66758 6.51391 5.02912 6.16551 5.48689 6.18217C5.84771 6.19521 6.16479 6.48132 6.20196 6.83479C6.21581 6.96372 6.22092 7.09338 6.22092 7.22303C6.22237 8.0408 6.22165 8.85857 6.22165 9.67634H6.2231H6.22237Z" fill="white"/>
<path d="M9.33197 9.65968C9.33197 10.5376 9.33197 11.4162 9.33197 12.2941C9.33197 12.5889 9.24086 12.8409 8.9799 13.0068C8.73352 13.1633 8.47184 13.185 8.21015 13.0539C7.94628 12.9213 7.79904 12.7026 7.78228 12.4071C7.77426 12.2687 7.7779 12.1297 7.7779 11.9906C7.77863 10.3492 7.77936 8.70719 7.78082 7.06585C7.78082 6.87101 7.79394 6.67906 7.91713 6.51391C8.11539 6.24881 8.37927 6.13581 8.70437 6.201C9.02072 6.26474 9.22701 6.45814 9.30063 6.77467C9.32177 6.86449 9.32979 6.95938 9.32979 7.05281C9.33197 7.92201 9.33124 8.79121 9.33124 9.65968H9.33197Z" fill="white"/>
</svg>
