<svg width="14" height="14" viewBox="0 0 14 14" fill="none" xmlns="http://www.w3.org/2000/svg">
<path d="M5.83403 13.9978C4.44875 13.9978 3.06346 13.9945 1.67818 14C1.33801 14.0011 1.03668 13.9014 0.765417 13.7074C0.350871 13.4114 0.0971125 13.0108 0.0210942 12.5034C0.0074219 12.4135 0.00249986 12.3215 0.00249986 12.2305C0.00140607 9.51569 -0.00406286 6.80143 0.00578122 4.08662C0.00851569 3.37203 0.361809 2.84869 0.989643 2.51386C1.24668 2.37686 1.52505 2.33247 1.81436 2.33247C3.28167 2.33411 4.74899 2.33247 6.21631 2.33302C6.29834 2.33302 6.38037 2.33082 6.46241 2.33685C6.71726 2.35439 6.92836 2.53523 6.98688 2.78402C7.06399 3.11228 6.82172 3.50081 6.42194 3.50245C5.89583 3.50465 5.36917 3.50136 4.84306 3.50136C3.83623 3.50136 2.82885 3.50245 1.82202 3.50191C1.69732 3.50191 1.57537 3.51286 1.46653 3.57917C1.27567 3.6959 1.17066 3.86578 1.16738 4.0921C1.1652 4.2428 1.16848 4.39351 1.16848 4.54421C1.16848 7.09899 1.16848 9.65378 1.16793 12.2086C1.16793 12.3741 1.20074 12.5259 1.31231 12.6525C1.41458 12.7686 1.54255 12.8377 1.69787 12.8481C1.78865 12.8541 1.87999 12.8547 1.97077 12.8547C4.60024 12.8552 7.2297 12.8552 9.85917 12.8563C10.1873 12.8563 10.4017 12.7133 10.4782 12.4294C10.4947 12.3686 10.5018 12.3034 10.5018 12.2404C10.5029 10.6972 10.5023 9.15346 10.5029 7.61028C10.5029 7.26394 10.7637 7.00474 11.1039 7.01077C11.4058 7.01625 11.6415 7.2497 11.6628 7.56644C11.6688 7.65303 11.6688 7.73961 11.6688 7.82674C11.6688 9.27676 11.6688 10.7262 11.6694 12.1762C11.6694 12.5538 11.5928 12.9117 11.3823 13.23C11.1012 13.6558 10.703 13.9063 10.2021 13.9934C10.1665 13.9994 10.1293 13.9978 10.0932 13.9978C8.6735 13.9978 7.25431 13.9978 5.83457 13.9978H5.83403Z" fill="white"/>
<path d="M12.1534 3.93099C11.9948 4.08553 11.8362 4.23623 11.6814 4.39131C10.394 5.68021 9.10719 6.96967 7.82035 8.25912C7.73831 8.34132 7.65409 8.42187 7.57315 8.50517C7.49987 8.58024 7.41018 8.61806 7.30955 8.63778C6.66749 8.76547 6.02544 8.8948 5.38284 9.02193C5.18049 9.06194 5.0383 8.99727 4.99291 8.83232C4.97595 8.7704 4.98525 8.69642 4.99783 8.63121C5.12635 7.97854 5.2587 7.32696 5.38722 6.67429C5.4069 6.57291 5.45558 6.494 5.52667 6.42276C6.68828 5.26264 7.84878 4.10142 9.00929 2.9402C9.35274 2.5966 9.69619 2.25301 10.038 1.90831C10.0735 1.87215 10.0965 1.86228 10.1364 1.90283C10.7976 2.56701 11.4605 3.2301 12.1228 3.89318C12.1293 3.89975 12.1342 3.90688 12.1534 3.93154V3.93099Z" fill="white"/>
<path d="M10.7074 1.2403C10.9759 0.970681 11.2319 0.714216 11.4873 0.457203C11.717 0.225398 11.9904 0.077437 12.3125 0.0215407C13.0738 -0.109432 13.7804 0.368426 13.9592 1.14001C14.0839 1.67815 13.9166 2.13354 13.5398 2.52043C13.2948 2.77197 13.0459 3.01966 12.7982 3.26846C12.7889 3.27777 12.7774 3.2849 12.779 3.2838C12.0878 2.60154 11.3998 1.92311 10.7069 1.23975L10.7074 1.2403Z" fill="white"/>
</svg>
