<svg width="11" height="12" viewBox="0 0 11 12" fill="none" xmlns="http://www.w3.org/2000/svg">
<path d="M0.00204603 5.95502C0.00204603 4.60078 -0.0039668 3.24654 0.00462296 1.8923C0.00848836 1.32785 0.276489 0.905709 0.774695 0.641436C0.979132 0.533304 1.20504 0.500433 1.43482 0.500433C2.76795 0.5 4.10108 0.500865 5.43421 0.5C5.60601 0.5 5.75418 0.548875 5.85296 0.695502C6.05225 0.991349 5.87272 1.37154 5.53643 1.41003C5.49219 1.41522 5.4471 1.41739 5.40286 1.41739C4.06801 1.41739 2.73316 1.42042 1.39831 1.41479C1.12988 1.41349 0.917715 1.6064 0.912561 1.86678C0.909125 2.04628 0.910413 2.22578 0.910413 2.40528C0.910413 4.82439 0.910413 7.24394 0.910413 9.66306C0.910413 9.82266 0.907836 9.98313 0.915997 10.1423C0.926304 10.3447 1.05214 10.5108 1.23081 10.5614C1.29652 10.58 1.36868 10.5826 1.4374 10.5826C2.77224 10.583 4.10709 10.5817 5.44194 10.5822C5.69319 10.5822 5.86842 10.7141 5.92211 10.9377C5.98868 11.2154 5.79069 11.4827 5.50722 11.4965C5.43421 11.5 5.36077 11.4991 5.28733 11.4991C4.02206 11.4991 2.75721 11.4983 1.49194 11.5C1.25658 11.5 1.02723 11.4749 0.81292 11.3728C0.395028 11.1739 0.131751 10.8473 0.0359756 10.3919C0.0127832 10.282 0.0033345 10.1674 0.0033345 10.0549C0.00118706 8.68815 0.00204603 7.32137 0.00204603 5.95415V5.95502Z" fill="white"/>
<path d="M9.39968 5.53893C9.2558 5.38841 9.11407 5.23356 8.96589 5.08564C8.47456 4.59343 7.98065 4.10381 7.48759 3.61289C7.39955 3.52552 7.32783 3.43123 7.3115 3.30147C7.28144 3.06531 7.45796 2.83088 7.69461 2.79801C7.85996 2.77509 7.99482 2.83218 8.11078 2.94896C8.42173 3.26125 8.73397 3.57266 9.0475 3.88279C9.5762 4.40614 10.1066 4.92777 10.6362 5.45026C10.7062 5.51946 10.7758 5.58953 10.8445 5.66003C11.0455 5.86462 11.0536 6.10943 10.8574 6.31964C10.6933 6.49481 10.5211 6.66263 10.3506 6.83175C10.0134 7.16652 9.67541 7.50043 9.3374 7.83391C8.93153 8.23443 8.52524 8.63408 8.11937 9.03417C8.0309 9.12154 7.93426 9.19334 7.80499 9.20329C7.61558 9.21799 7.4687 9.141 7.37292 8.97924C7.27843 8.81964 7.28445 8.65657 7.39053 8.50346C7.4309 8.44507 7.48244 8.3936 7.53312 8.34299C8.14729 7.7301 8.76232 7.11808 9.37691 6.50562C9.38808 6.49438 9.39882 6.4827 9.42158 6.45805C9.37477 6.45805 9.34041 6.45805 9.30648 6.45805C7.60485 6.45805 5.90321 6.45805 4.20158 6.45805C4.08648 6.45805 3.97352 6.45199 3.87088 6.38754C3.70853 6.28503 3.62263 6.08391 3.6673 5.89922C3.71497 5.70112 3.87517 5.56012 4.07102 5.54585C4.12986 5.54152 4.18913 5.53979 4.24797 5.53979C5.96034 5.53979 7.6727 5.53979 9.38507 5.53979C9.39323 5.53979 9.40182 5.53806 9.40011 5.53806L9.39968 5.53893Z" fill="white"/>
</svg>
