<svg width="16" height="14" viewBox="0 0 16 14" fill="none" xmlns="http://www.w3.org/2000/svg">
<rect width="16" height="14" fill="#262626"/>
<rect width="1440" height="1024" transform="translate(-905 -160)" fill="#EBEBEB"/>
<rect x="-64.5" y="-9.5" width="199" height="34" rx="9.5" stroke="#477155"/>
<path d="M1.84768 6.29813C2.2165 6.29813 2.586 6.29616 2.95481 6.3001C3.02392 6.30075 3.05198 6.27778 3.07593 6.2174C3.38863 5.44885 4.19879 4.91066 5.05206 4.90148C6.00934 4.89097 6.83798 5.4495 7.15342 6.31585C7.5975 7.53792 6.78392 8.85581 5.45988 9.07174C4.5334 9.2227 3.46801 8.75343 3.0684 7.76041C3.0465 7.70594 3.01434 7.702 2.96576 7.702C2.23908 7.70331 1.51171 7.702 0.785032 7.70331C0.50517 7.70397 0.282102 7.59896 0.128144 7.37515C-0.0258135 7.152 -0.0408672 6.91113 0.0884575 6.67551C0.225993 6.4248 0.454535 6.30141 0.748766 6.29879C1.11484 6.29616 1.48161 6.29813 1.84768 6.29813Z" fill="#477155"/>
<path d="M14.1684 12.5975C13.7907 12.5975 13.413 12.5995 13.0353 12.5955C12.973 12.5955 12.9457 12.6146 12.9238 12.6684C12.7664 13.0438 12.5324 13.3621 12.1848 13.5991C11.0687 14.3584 9.54558 14.006 8.95028 12.8259C8.33582 11.6071 9.02829 10.1488 10.4618 9.85605C11.194 9.70641 11.8413 9.88558 12.39 10.3719C12.6261 10.5813 12.8027 10.8373 12.9197 11.1267C12.9436 11.1858 12.973 11.2028 13.0367 11.2028C13.7668 11.2009 14.4962 11.2009 15.2263 11.2022C15.5315 11.2022 15.773 11.3157 15.9181 11.5841C16.1617 12.0337 15.8373 12.5811 15.3098 12.5968C14.9293 12.608 14.5489 12.5988 14.1684 12.5988V12.5975Z" fill="#477155"/>
<path d="M15.994 2.07273C15.994 3.26724 15.0292 4.1979 13.7928 4.19659C12.6357 4.19527 11.6353 3.23573 11.6346 2.12458C11.6339 0.955013 12.6193 -0.00912337 13.816 6.51378e-05C15.201 0.0105663 16.007 1.13353 15.994 2.07273Z" fill="#477155"/>
<path d="M5.08833 1.40066C6.5109 1.40066 7.93347 1.39869 9.35604 1.40328C9.48879 1.40328 9.63112 1.42231 9.7536 1.46957C10.0492 1.58377 10.2264 1.90405 10.1778 2.19349C10.1245 2.51509 9.88361 2.7448 9.55243 2.78549C9.47921 2.79468 9.40531 2.79993 9.3321 2.79993C6.48148 2.80059 3.63086 2.80059 0.779558 2.79993C0.41348 2.79993 0.139777 2.62141 0.0385067 2.31885C-0.109977 1.87321 0.21573 1.42035 0.700868 1.40262C0.862353 1.39672 1.02452 1.40066 1.18601 1.40066C2.48678 1.40066 3.78756 1.40066 5.08833 1.40066Z" fill="#477155"/>
<path d="M12.3579 7.70331C11.4122 7.70331 10.4666 7.70134 9.52095 7.70463C9.24109 7.70528 9.01665 7.60552 8.85927 7.38369C8.70258 7.1625 8.6841 6.92163 8.81001 6.68405C8.94207 6.4353 9.16651 6.30929 9.45732 6.3001C9.54832 6.29682 9.63933 6.29944 9.72965 6.29944C11.5559 6.29944 13.3815 6.29944 15.2078 6.29944C15.5671 6.29944 15.8257 6.45762 15.9407 6.74443C16.1261 7.20648 15.8024 7.67575 15.279 7.70266C15.2366 7.70463 15.1941 7.70397 15.151 7.70397C14.2197 7.70397 13.2878 7.70397 12.3565 7.70397L12.3579 7.70331Z" fill="#477155"/>
<path d="M3.63702 12.6021C2.68864 12.6021 1.74026 12.6021 0.791875 12.6021C0.431271 12.6021 0.1692 12.4433 0.0501391 12.1551C-0.119557 11.743 0.15962 11.2783 0.614652 11.2186C0.687867 11.2087 0.761767 11.2022 0.834983 11.2022C2.71738 11.2015 4.60045 11.2022 6.48285 11.2009C6.80582 11.2009 7.05626 11.317 7.202 11.6051C7.42439 12.0449 7.10005 12.5791 6.59301 12.5962C6.22693 12.608 5.86017 12.6001 5.49409 12.6001C4.87484 12.6001 4.25627 12.6001 3.63702 12.6001V12.6021Z" fill="#477155"/>
</svg>
