<svg width="125" height="46" viewBox="0 0 125 46" fill="none" xmlns="http://www.w3.org/2000/svg">
<g clip-path="url(#clip0_219_891)">
<path d="M56.2368 18.4193V0.448334H60.4597V18.4193H56.2368Z" fill="white"/>
<path d="M62.8405 12.3266H66.7114V12.8517C66.7114 13.8395 66.8281 14.5361 67.0633 14.9398C67.2985 15.3453 67.6935 15.5471 68.2483 15.5471C68.6936 15.5471 69.0455 15.3935 69.304 15.0863C69.5626 14.779 69.6918 14.3611 69.6918 13.8323C69.6918 12.9607 69.0617 12.1247 67.8031 11.3227C67.6002 11.1834 67.444 11.078 67.3344 11.0084L67.1352 10.8798C65.4385 9.74373 64.3827 8.88814 63.968 8.31298C63.67 7.87715 63.4437 7.38773 63.2875 6.84294C63.1313 6.29815 63.0523 5.70334 63.0523 5.05674C63.0523 3.48488 63.5102 2.2524 64.424 1.35752C65.3397 0.462633 66.5983 0.0160828 68.2016 0.0160828C69.945 0.0160828 71.2772 0.455488 72.1947 1.3343C73.1139 2.21311 73.5736 3.48488 73.5736 5.14962C73.5736 5.21928 73.57 5.31752 73.5628 5.44077C73.5556 5.56581 73.5502 5.66226 73.5502 5.73192H69.7619V5.51043C69.7619 4.72451 69.638 4.1297 69.392 3.72423C69.146 3.32055 68.7887 3.11693 68.3183 3.11693C67.9198 3.11693 67.5984 3.25982 67.356 3.54204C67.1136 3.82605 66.9915 4.20115 66.9915 4.66735C66.9915 5.43005 67.6792 6.2392 69.0563 7.09479C69.3058 7.25734 69.4979 7.38237 69.6308 7.46811C69.7403 7.53063 69.8929 7.62708 70.0886 7.75926C71.5663 8.69344 72.5125 9.47937 72.9272 10.117C73.1858 10.5297 73.3833 10.9976 73.5197 11.5228C73.6562 12.0479 73.7244 12.6177 73.7244 13.2322C73.7244 15.0291 73.2558 16.4134 72.3168 17.3869C71.3778 18.3604 70.0366 18.8462 68.2932 18.8462C66.4637 18.8462 65.0884 18.3818 64.1709 17.4512C63.2516 16.5224 62.792 15.1381 62.792 13.3036C62.792 13.1875 62.7938 13.0643 62.7974 12.9357C62.801 12.8071 62.8153 12.6034 62.8387 12.323L62.8405 12.3266Z" fill="white"/>
<path d="M76.001 18.4193V0.448334H80.5398C81.9169 0.448334 82.9026 0.503706 83.5023 0.610878C84.1002 0.719836 84.6191 0.902028 85.0572 1.15924C85.7071 1.54863 86.1973 2.06127 86.5294 2.69895C86.8616 3.33662 87.0285 4.09218 87.0285 4.96206C87.0285 5.74084 86.8741 6.4321 86.5653 7.03941C86.2565 7.64672 85.761 8.23795 85.0823 8.81311C85.8884 9.21857 86.4935 9.76872 86.9011 10.4636C87.3068 11.1602 87.5115 11.9943 87.5115 12.966C87.5115 13.768 87.3751 14.5254 87.1004 15.2416C86.8257 15.9579 86.4432 16.5688 85.9513 17.0743C85.4827 17.5637 84.9027 17.9102 84.2151 18.1121C83.5274 18.3139 82.4627 18.4157 81.0246 18.4157H76.0046L76.001 18.4193ZM80.2238 7.47346H80.4932C81.3226 7.47346 81.9331 7.3002 82.3281 6.95367C82.7231 6.60715 82.9206 6.07308 82.9206 5.34967C82.9206 4.71914 82.7249 4.23508 82.3335 3.89749C81.9421 3.55989 81.3837 3.3902 80.6565 3.3902C80.5398 3.3902 80.4501 3.39199 80.3872 3.39556C80.3244 3.39914 80.2741 3.40449 80.2346 3.41343L80.222 7.47346H80.2238ZM80.2238 15.2452H80.5883C81.4717 15.2452 82.136 15.0398 82.583 14.6272C83.0283 14.2146 83.2509 13.6001 83.2509 12.7838C83.2509 12.0211 83.0319 11.4638 82.5938 11.1084C82.1557 10.7547 81.4645 10.5779 80.5183 10.5779H80.2256V15.2452H80.2238Z" fill="white"/>
<path d="M55.8649 35.3685H59.7358V35.8937C59.7358 36.8814 59.8525 37.5781 60.0877 37.9817C60.323 38.3872 60.7179 38.5891 61.2727 38.5891C61.718 38.5891 62.0699 38.4354 62.3284 38.1282C62.587 37.821 62.7163 37.403 62.7163 36.8743C62.7163 36.0026 62.0861 35.1667 60.8275 34.3647C60.6246 34.2254 60.4684 34.12 60.3589 34.0503L60.1596 33.9217C58.4629 32.7857 57.4072 31.9301 56.9924 31.3549C56.6944 30.9191 56.4682 30.4297 56.3119 29.8849C56.1557 29.3401 56.0767 28.7453 56.0767 28.0987C56.0767 26.5268 56.5346 25.2944 57.4485 24.3995C58.3641 23.5046 59.6227 23.058 61.2261 23.058C62.9694 23.058 64.3016 23.4975 65.2191 24.3763C66.1384 25.2551 66.598 26.5268 66.598 28.1916C66.598 28.2612 66.5944 28.3595 66.5872 28.4827C66.58 28.6078 66.5747 28.7042 66.5747 28.7739H62.7863V28.5524C62.7863 27.7665 62.6624 27.1717 62.4164 26.7662C62.1705 26.3607 61.8132 26.1589 61.3428 26.1589C60.9442 26.1589 60.6228 26.3018 60.3804 26.584C60.138 26.868 60.0159 27.2431 60.0159 27.7093C60.0159 28.472 60.7036 29.2812 62.0807 30.1368C62.3302 30.3011 62.5224 30.4243 62.6552 30.5101C62.7647 30.5726 62.9173 30.669 63.1131 30.8012C64.5907 31.7354 65.5369 32.5213 65.9516 33.159C66.2102 33.5716 66.4077 34.0396 66.5441 34.5647C66.6806 35.0899 66.7488 35.6597 66.7488 36.2741C66.7488 38.0711 66.2802 39.4554 65.3412 40.4288C64.4022 41.4023 63.061 41.8882 61.3176 41.8882C59.4881 41.8882 58.1128 41.4237 57.1953 40.4931C56.276 39.5643 55.8164 38.18 55.8164 36.3456C55.8164 36.2295 55.8182 36.1062 55.8218 35.9776C55.8254 35.849 55.8397 35.6454 55.8631 35.365L55.8649 35.3685Z" fill="white"/>
<path d="M67.7469 27.9594H71.5012L72.8262 36.6528L74.1638 27.9594H77.9181L75.2195 40.3645C74.7042 42.7455 74.1243 44.2799 73.4833 44.9676C72.8424 45.6553 71.8208 46 70.4221 46C70.2192 46 69.9894 45.9875 69.7363 45.9643C69.4813 45.9411 69.1904 45.9053 68.8619 45.8589V43.0349C68.878 43.0349 68.9014 43.0385 68.9319 43.0474C69.1976 43.0706 69.3897 43.0831 69.5064 43.0831C69.9373 43.0831 70.2551 43.0028 70.4616 42.8438C70.6681 42.6848 70.7722 42.4365 70.7722 42.1025C70.7722 41.8917 70.6932 41.4291 70.537 40.7146C70.4814 40.4664 70.4437 40.2752 70.4203 40.1431L67.7451 27.9594H67.7469Z" fill="white"/>
<path d="M78.561 37.1779L81.9508 37.1904C81.9903 37.8906 82.1268 38.4015 82.362 38.7248C82.5972 39.0481 82.9491 39.2089 83.4177 39.2089C83.7929 39.2089 84.1017 39.0981 84.3441 38.8766C84.5865 38.6551 84.7086 38.3693 84.7086 38.0192C84.7086 37.7156 84.6242 37.4655 84.4572 37.2673C84.2885 37.069 83.915 36.8332 83.3369 36.5617C83.2112 36.4992 83.0155 36.4063 82.7498 36.2813C81.3817 35.6507 80.4265 35.0595 79.8879 34.5076C79.5054 34.1343 79.211 33.6984 79.0081 33.2001C78.8052 32.7017 78.7029 32.1802 78.7029 31.6372C78.7029 30.4082 79.123 29.4276 79.9633 28.6971C80.8035 27.9665 81.94 27.6003 83.371 27.6003C84.802 27.6003 85.9995 27.9522 86.8021 28.656C87.6028 29.3597 88.005 30.369 88.005 31.6836V31.9283L84.6853 31.9176C84.6691 31.2406 84.5668 30.7583 84.3747 30.4708C84.1825 30.1832 83.8719 30.0385 83.4428 30.0385C83.0604 30.0385 82.7552 30.1421 82.5272 30.3475C82.3009 30.5529 82.1878 30.8244 82.1878 31.1585C82.1878 31.7497 82.7552 32.2945 83.8881 32.7928C84.0443 32.8625 84.1664 32.9179 84.2526 32.9572C85.8002 33.6502 86.8362 34.3218 87.3605 34.9756C87.8847 35.6293 88.1469 36.4849 88.1469 37.5423C88.1469 38.9034 87.7249 39.9573 86.8793 40.7057C86.0354 41.4523 84.8307 41.8256 83.2669 41.8256C81.703 41.8256 80.6258 41.4487 79.8017 40.6932C78.9758 39.9394 78.5646 38.8802 78.5646 37.5191V37.1815L78.561 37.1779Z" fill="white"/>
<path d="M96.027 41.4148C95.5656 41.5006 95.1634 41.5649 94.8187 41.6077C94.474 41.6506 94.1813 41.672 93.9389 41.672C93.1884 41.672 92.5493 41.5506 92.0214 41.3094C91.4935 41.0683 91.1039 40.7218 90.8544 40.2717C90.6892 39.9609 90.5743 39.5697 90.5078 39.0981C90.4414 38.6284 90.4073 37.9103 90.4073 36.9458V30.7494H88.9404V27.9612H90.4073V24.2262H94.219V27.9612H96.0252V30.7494H94.219V36.2563C94.219 37.4316 94.3052 38.155 94.4776 38.4265C94.6499 38.698 94.9821 38.8356 95.474 38.8356C95.5602 38.8356 95.7002 38.823 95.8959 38.7998C95.9498 38.7927 95.9929 38.7873 96.0252 38.7873V41.413L96.027 41.4148Z" fill="white"/>
<path d="M103.909 36.7225H107.462V37.0601C107.462 38.6391 107.047 39.8287 106.22 40.6253C105.39 41.422 104.155 41.8221 102.514 41.8221C101.684 41.8221 100.934 41.706 100.262 41.472C99.5892 41.238 99.0667 40.9165 98.6915 40.5038C98.2695 40.0287 97.9679 39.4 97.7884 38.614C97.6088 37.8281 97.519 36.5724 97.519 34.8452C97.519 32.9393 97.6106 31.6086 97.7955 30.8548C97.9787 30.101 98.2947 29.4776 98.7399 28.9882C99.169 28.5292 99.7149 28.1826 100.376 27.9504C101.036 27.7164 101.805 27.6003 102.681 27.6003C103.557 27.6003 104.342 27.7272 104.992 27.979C105.64 28.2327 106.168 28.6078 106.575 29.1043C106.92 29.5241 107.166 30.026 107.315 30.6101C107.464 31.1942 107.538 32.1891 107.538 33.5966V35.2185H101.368C101.361 35.2578 101.356 35.3078 101.356 35.3703C101.325 35.9383 101.309 36.3349 101.309 36.5599C101.309 37.5084 101.412 38.1675 101.614 38.5372C101.817 38.907 102.166 39.091 102.658 39.091C103.087 39.091 103.412 38.9499 103.631 38.6658C103.85 38.3818 103.959 37.9514 103.959 37.3762C103.959 37.2601 103.947 37.0797 103.923 36.8386C103.916 36.7921 103.911 36.7528 103.911 36.7225H103.909ZM101.458 32.8839H104.004V32.8143C104.035 32.4713 104.051 32.2302 104.051 32.0908C104.051 31.43 103.943 30.9423 103.728 30.6262C103.512 30.3118 103.178 30.1528 102.726 30.1528C102.273 30.1528 101.934 30.3064 101.735 30.6137C101.535 30.9209 101.435 31.4282 101.435 32.1373C101.435 32.332 101.435 32.4838 101.44 32.5928C101.444 32.7017 101.449 32.7982 101.458 32.8839Z" fill="white"/>
<path d="M109.821 41.4613V27.9594H113.175V29.558C113.581 28.9114 114.035 28.4399 114.536 28.1398C115.037 27.8397 115.628 27.6897 116.306 27.6897C116.924 27.6897 117.457 27.8486 117.908 28.1684C118.357 28.4881 118.703 28.9507 118.946 29.5562C119.351 28.9186 119.811 28.447 120.325 28.1451C120.836 27.8415 121.425 27.6897 122.09 27.6897C123.099 27.6897 123.835 28.0362 124.3 28.7274C124.765 29.4205 124.998 30.5244 124.998 32.0408V41.4577H121.373V32.9036C121.373 31.939 121.305 31.3299 121.168 31.0781C121.032 30.8262 120.795 30.6994 120.459 30.6994C120.053 30.6994 119.734 30.9048 119.504 31.3174C119.272 31.7301 119.158 32.2981 119.158 33.0215V41.4577H115.604V32.9036C115.604 31.939 115.538 31.3299 115.405 31.0781C115.272 30.8262 115.033 30.6994 114.691 30.6994C114.292 30.6994 113.976 30.9048 113.746 31.3174C113.515 31.7301 113.4 32.2981 113.4 33.0215V41.4577H109.821V41.4613Z" fill="white"/>
<path d="M34.0235 43.5833H13.9146C13.2701 43.5833 12.7476 44.1031 12.7476 44.7443C12.7476 45.3855 13.2701 45.9053 13.9146 45.9053H34.0235C34.668 45.9053 35.1905 45.3855 35.1905 44.7443C35.1905 44.1031 34.668 43.5833 34.0235 43.5833Z" fill="white"/>
<path d="M28.1885 38.9391H20.2886V43.5833H28.1885V38.9391Z" fill="white"/>
<path d="M40.4404 0H7.13865C3.19608 0 0 3.17964 0 7.10193V34.3379C0 38.2602 3.19608 41.4398 7.13865 41.4398H40.4404C44.383 41.4398 47.579 38.2602 47.579 34.3379V7.10193C47.579 3.17964 44.383 0 40.4404 0Z" fill="white"/>
<path d="M36.9554 9.64548H10.6235C9.41675 9.64548 8.43848 10.6187 8.43848 11.8193V17.2958C8.43848 18.4963 9.41675 19.4696 10.6235 19.4696H36.9554C38.1621 19.4696 39.1404 18.4963 39.1404 17.2958V11.8193C39.1404 10.6187 38.1621 9.64548 36.9554 9.64548Z" fill="#477155"/>
<path d="M33.5439 11.9675H14.0347C12.8279 11.9675 11.8496 12.9408 11.8496 14.1413V14.9737C11.8496 16.1743 12.8279 17.1475 14.0347 17.1475H33.5439C34.7506 17.1475 35.7289 16.1743 35.7289 14.9737V14.1413C35.7289 12.9408 34.7506 11.9675 33.5439 11.9675Z" fill="white"/>
<path d="M36.9554 22.8633H10.6235C9.41675 22.8633 8.43848 23.8366 8.43848 25.0371V30.5136C8.43848 31.7142 9.41675 32.6874 10.6235 32.6874H36.9554C38.1621 32.6874 39.1404 31.7142 39.1404 30.5136V25.0371C39.1404 23.8366 38.1621 22.8633 36.9554 22.8633Z" fill="#477155"/>
<path d="M33.5439 25.1854H14.0347C12.8279 25.1854 11.8496 26.1586 11.8496 27.3592V28.1916C11.8496 29.3921 12.8279 30.3654 14.0347 30.3654H33.5439C34.7506 30.3654 35.7289 29.3921 35.7289 28.1916V27.3592C35.7289 26.1586 34.7506 25.1854 33.5439 25.1854Z" fill="white"/>
<g filter="url(#filter0_d_219_891)">
<path d="M33.2156 15.5399C33.7114 15.5399 34.1133 15.1401 34.1133 14.6468C34.1133 14.1536 33.7114 13.7537 33.2156 13.7537C32.7198 13.7537 32.3179 14.1536 32.3179 14.6468C32.3179 15.1401 32.7198 15.5399 33.2156 15.5399Z" fill="#477155"/>
</g>
<g filter="url(#filter1_d_219_891)">
<path d="M33.2156 28.7578C33.7114 28.7578 34.1133 28.358 34.1133 27.8647C34.1133 27.3715 33.7114 26.9716 33.2156 26.9716C32.7198 26.9716 32.3179 27.3715 32.3179 27.8647C32.3179 28.358 32.7198 28.7578 33.2156 28.7578Z" fill="#477155"/>
</g>
</g>
<defs>
<filter id="filter0_d_219_891" x="29.3179" y="10.7537" width="21.7954" height="21.7862" filterUnits="userSpaceOnUse" color-interpolation-filters="sRGB">
<feFlood flood-opacity="0" result="BackgroundImageFix"/>
<feColorMatrix in="SourceAlpha" type="matrix" values="0 0 0 0 0 0 0 0 0 0 0 0 0 0 0 0 0 0 127 0" result="hardAlpha"/>
<feOffset dx="7" dy="7"/>
<feGaussianBlur stdDeviation="5"/>
<feColorMatrix type="matrix" values="0 0 0 0 0 0 0 0 0 0 0 0 0 0 0 0 0 0 0.15 0"/>
<feBlend mode="normal" in2="BackgroundImageFix" result="effect1_dropShadow_219_891"/>
<feBlend mode="normal" in="SourceGraphic" in2="effect1_dropShadow_219_891" result="shape"/>
</filter>
<filter id="filter1_d_219_891" x="29.3179" y="23.9716" width="21.7954" height="21.7862" filterUnits="userSpaceOnUse" color-interpolation-filters="sRGB">
<feFlood flood-opacity="0" result="BackgroundImageFix"/>
<feColorMatrix in="SourceAlpha" type="matrix" values="0 0 0 0 0 0 0 0 0 0 0 0 0 0 0 0 0 0 127 0" result="hardAlpha"/>
<feOffset dx="7" dy="7"/>
<feGaussianBlur stdDeviation="5"/>
<feColorMatrix type="matrix" values="0 0 0 0 0 0 0 0 0 0 0 0 0 0 0 0 0 0 0.15 0"/>
<feBlend mode="normal" in2="BackgroundImageFix" result="effect1_dropShadow_219_891"/>
<feBlend mode="normal" in="SourceGraphic" in2="effect1_dropShadow_219_891" result="shape"/>
</filter>
<clipPath id="clip0_219_891">
<rect width="125" height="46" fill="white"/>
</clipPath>
</defs>
</svg>
