<svg width="16" height="16" viewBox="0 0 16 16" fill="none" xmlns="http://www.w3.org/2000/svg">
<path d="M8.00083 16C3.61142 15.9844 -0.0769498 12.4458 0.00122019 7.83129C0.0737619 3.56438 3.55014 -0.0298225 8.06524 0.000186569C12.4553 0.0295704 16.083 3.60502 15.9986 8.15827C15.9179 12.5052 12.4046 15.965 8.00083 15.9994V16ZM7.97644 14.749C11.6829 14.7659 14.6822 11.8119 14.756 8.12138C14.831 4.36838 11.8099 1.30308 8.12527 1.24244C4.32308 1.17992 1.30947 4.22583 1.24256 7.86443C1.17189 11.7031 4.28243 14.7565 7.97644 14.749Z" fill="white"/>
<path d="M6.90519 10.7165C6.71321 10.719 6.56312 10.6421 6.43743 10.5159C5.7883 9.86816 5.14043 9.21984 4.49318 8.56964C4.31933 8.39521 4.24554 8.18452 4.30245 7.94132C4.4 7.52245 4.90779 7.33677 5.26112 7.58747C5.30365 7.61748 5.34367 7.65124 5.38057 7.68812C5.8746 8.1814 6.36801 8.6753 6.85954 9.1717C6.90332 9.21608 6.92396 9.19295 6.95272 9.16419C7.13533 8.98226 7.31793 8.80033 7.50054 8.61778C8.54489 7.57371 9.58986 6.52903 10.6336 5.48434C10.8093 5.30866 11.0157 5.23176 11.2596 5.29866C11.4966 5.36367 11.6348 5.53185 11.698 5.7638C11.7449 5.9376 11.7142 6.10077 11.606 6.24456C11.5516 6.31709 11.4897 6.38523 11.4259 6.44963C10.0927 7.78378 8.75876 9.11668 7.42549 10.4508C7.27853 10.5977 7.12157 10.7222 6.90645 10.7153L6.90519 10.7165Z" fill="white"/>
</svg>
