<svg width="15" height="12" viewBox="0 0 15 12" fill="none" xmlns="http://www.w3.org/2000/svg">
<rect width="15" height="12" fill="#262626"/>
<rect width="1440" height="1024" transform="translate(-1115 -160)" fill="#EBEBEB"/>
<rect x="-54.5" y="-9.5" width="199" height="34" rx="9.5" stroke="#477155"/>
<path d="M10.6233 9.93491C10.6233 9.90492 10.6233 9.87417 10.6233 9.84417C10.6233 7.99113 10.6233 6.13883 10.6249 4.28578C10.6249 4.20254 10.6343 4.1163 10.6563 4.03606C10.7308 3.76234 10.9826 3.59061 11.2822 3.60036C11.5583 3.60935 11.7983 3.81033 11.8516 4.0818C11.8657 4.1553 11.8728 4.23029 11.8728 4.30528C11.8736 6.14558 11.8736 7.98588 11.8736 9.82617C11.8736 9.86217 11.8736 9.89892 11.8736 9.95441C11.9096 9.92141 11.9308 9.90417 11.9504 9.88542C12.6093 9.25024 13.2665 8.61356 13.9277 7.97988C14.0995 7.8149 14.312 7.7579 14.5466 7.82464C14.7842 7.89214 14.9348 8.05037 14.9858 8.28284C15.0336 8.50182 14.9583 8.6893 14.796 8.84528C14.3983 9.22774 13.9999 9.60945 13.6014 9.99191C12.9771 10.5903 12.3528 11.188 11.7293 11.7865C11.6077 11.9027 11.4681 11.9844 11.2955 11.9979C11.1057 12.0129 10.9449 11.9454 10.8108 11.8187C10.4359 11.4632 10.0602 11.1078 9.68686 10.7501C9.02567 10.1171 8.36527 9.48346 7.70643 8.84828C7.39349 8.54607 7.44133 8.09386 7.80369 7.88614C8.02801 7.7579 8.30174 7.77215 8.50723 7.92738C8.56292 7.96938 8.6139 8.01887 8.66488 8.06762C9.28842 8.67055 9.91118 9.27423 10.5339 9.87792C10.5567 9.89967 10.5724 9.92891 10.5912 9.95441C10.6022 9.94841 10.6132 9.94166 10.6241 9.93566L10.6233 9.93491Z" fill="#477155"/>
<path d="M5.92679 1.19987C4.17931 1.19987 2.43183 1.19987 0.685128 1.19987C0.395711 1.19987 0.174531 1.09263 0.0513913 0.831659C-0.0937094 0.527942 0.0639406 0.0382458 0.628657 0.00299967C0.67101 0 0.713364 0 0.755718 0C4.23029 0 7.70565 0 11.181 0C11.5292 0 11.7693 0.160482 11.8532 0.447701C11.9496 0.776165 11.7285 1.11438 11.3724 1.17962C11.2994 1.19312 11.2241 1.19912 11.1496 1.19912C9.40921 1.19987 7.668 1.19987 5.92758 1.19987H5.92679Z" fill="#477155"/>
<path d="M3.42949 5.99934C2.51183 5.99934 1.59495 5.99934 0.677285 5.99934C0.351005 5.99934 0.104726 5.83286 0.0247241 5.56364C-0.0748856 5.22618 0.148648 4.88272 0.512576 4.81972C0.585519 4.80697 0.660814 4.80022 0.735325 4.80022C2.55732 4.79947 4.37853 4.80022 6.20052 4.79798C6.62877 4.79798 6.87583 5.08669 6.87426 5.42191C6.87348 5.75187 6.58641 5.99709 6.20131 5.99859C5.62247 6.00084 5.04285 5.99859 4.46402 5.99859C4.11892 5.99859 3.7746 5.99859 3.42949 5.99859V5.99934Z" fill="#477155"/>
<path d="M2.80438 10.7988C2.09535 10.7988 1.38553 10.7988 0.676501 10.7988C0.420025 10.7988 0.211394 10.7103 0.08198 10.4906C-0.129789 10.1321 0.0882547 9.69269 0.511792 9.6192C0.584734 9.60645 0.66003 9.5997 0.734541 9.5997C2.14006 9.5982 3.54557 9.59895 4.95109 9.5997C5.22717 9.5997 5.44443 9.70019 5.566 9.95066C5.73777 10.3054 5.526 10.7043 5.12521 10.7793C5.05227 10.7928 4.97697 10.7988 4.90246 10.7988C4.20284 10.8003 3.50322 10.7996 2.8036 10.7996L2.80438 10.7988Z" fill="#477155"/>
</svg>
