<svg width="19" height="19" viewBox="0 0 19 19" fill="none" xmlns="http://www.w3.org/2000/svg">
<path id="Vector" d="M9.59841 0.00359555C11.0428 0.00359555 12.4871 -0.00589894 13.9307 0.00596917C15.379 0.0178373 16.6176 0.544781 17.6148 1.59946C18.2329 2.253 18.6428 3.0268 18.8565 3.90425C18.9491 4.28403 18.9966 4.66776 18.9966 5.05862C18.9966 7.99242 19.0061 10.9262 18.9934 13.86C18.9855 15.6054 18.2772 17.0098 16.8621 18.0495C16.2076 18.5297 15.4716 18.8058 14.677 18.9309C14.4079 18.9736 14.1325 18.991 13.8602 18.991C10.9122 18.9949 7.96412 19.0116 5.01686 18.9862C3.38969 18.9728 2.07355 18.2726 1.05815 17.0035C0.531063 16.3452 0.228739 15.5872 0.0752025 14.7675C0.0308828 14.5294 0.00555717 14.2833 0.00555717 14.0412C0.000808619 11.0805 0.00555717 8.12059 1.71944e-05 5.16069C-0.00156565 4.49924 0.106068 3.86152 0.350618 3.24992C0.972678 1.69599 2.09729 0.689572 3.69439 0.202189C4.16528 0.0581888 4.64726 0.00359555 5.13715 0.00359555C6.62424 0.00438675 8.11133 0.00359555 9.59841 0.00359555ZM6.64403 9.49175C6.6282 9.51074 6.62266 9.51945 6.61553 9.52578C5.84548 10.222 5.07542 10.9175 4.30537 11.6138C4.18586 11.7222 4.05686 11.8227 3.95081 11.9429C3.77749 12.1399 3.75612 12.3733 3.86138 12.6083C3.96664 12.8433 4.15262 12.9731 4.41854 12.9818C4.62669 12.9881 4.7818 12.8908 4.92822 12.7586C5.65475 12.1027 6.38286 11.4484 7.11018 10.7941C7.40142 10.5314 7.69425 10.2703 7.9847 10.0076C8.31077 9.7125 8.31552 9.31057 7.99736 9.00595C7.96412 8.9743 7.9293 8.94345 7.89527 8.91259C7.12917 8.22266 6.36228 7.53272 5.59539 6.84358C5.34767 6.62125 5.10233 6.39655 4.84987 6.17897C4.57524 5.94161 4.1914 5.9693 3.95714 6.23435C3.72842 6.49308 3.75058 6.89106 4.01571 7.13C4.59503 7.65378 5.17831 8.17281 5.75921 8.69501C6.05283 8.95927 6.34566 9.22433 6.64403 9.49334V9.49175ZM12.0352 12.9794V12.981C12.8789 12.981 13.7233 12.9826 14.567 12.981C14.9168 12.9802 15.1985 12.6938 15.1946 12.3528C15.1906 11.9959 14.9128 11.715 14.5638 11.715C12.8789 11.715 11.1939 11.715 9.50978 11.715C9.15363 11.715 8.86793 11.988 8.86635 12.3274C8.86476 12.6985 9.14334 12.9802 9.51294 12.9802C10.3534 12.9802 11.1947 12.9802 12.0352 12.9802V12.9794Z" fill="white"/>
</svg>
